<?xml version="1.0" encoding="UTF-8"?>
<!DOCTYPE svg PUBLIC "-//W3C//DTD SVG 1.1//EN" "http://www.w3.org/Graphics/SVG/1.1/DTD/svg11.dtd">
<!-- Creator: CorelDRAW 2021 (64-Bit) -->
<svg xmlns="http://www.w3.org/2000/svg" xml:space="preserve" width="297mm" height="210mm" version="1.1" style="shape-rendering:geometricPrecision; text-rendering:geometricPrecision; image-rendering:optimizeQuality; fill-rule:evenodd; clip-rule:evenodd"
viewBox="0 0 29700 21000"
 xmlns:xlink="http://www.w3.org/1999/xlink"
 xmlns:xodm="http://www.corel.com/coreldraw/odm/2003">
 <defs>
  <style type="text/css">
   <![CDATA[
    .fil0 {fill:black}
    .fil1 {fill:black;fill-rule:nonzero}
   ]]>
  </style>
 </defs>
 <g id="Layer_x0020_1">
  <metadata id="CorelCorpID_0Corel-Layer"/>
  <g id="_1809895723904">
   <path class="fil0" d="M9754.78 10034.25l-778.66 0c-31.8,0 -58.04,-24.76 -58.04,-55.05l0 -131.27c0,-30.28 26.1,-55.04 58.04,-55.04l778.66 0c31.93,0 58.03,24.88 58.03,55.04l0 131.27c0,30.16 -26.37,55.05 -58.03,55.05zm209.5 -470.42l-1189.8 0c-50.23,0 -91.53,39.14 -91.53,86.78l0 528.18c0,47.63 41.17,86.77 91.53,86.77l1189.8 0c50.36,0 91.52,-39.01 91.52,-86.77l0 -528.18c0,-47.77 -41.43,-86.78 -91.52,-86.78z"/>
   <path class="fil0" d="M8432.8 10170.8l0 -474.42c0,-74.03 -60.63,-134.58 -134.56,-134.58l-108.62 0 -996.77 0c-74.03,0 -134.58,60.66 -134.58,134.58l0 835.6 0 39.53c0,74.03 60.55,134.59 134.58,134.59l1105.39 0 1474.59 0c21.74,0 39.53,17.76 39.53,39.47l0 240.24c0,21.72 -17.79,39.47 -39.53,39.47l-1607.33 0 -1029.54 0c-44.45,0 -80.93,35.79 -82.05,80l0 2.12 0 61.24c0,54.94 44.23,99.87 98.34,99.87l1013.25 0 1791.74 0c54.11,0 98.35,-44.93 98.35,-99.87l0 -607.53c0,-54.94 -44.24,-99.87 -98.35,-99.87l-1524.44 0 -380.25 0 -621.1 0 -5.8 -0.14c-73.04,-3.05 -131.83,-63.73 -131.83,-137.5l0 -384.66c0,-75.72 61.92,-137.63 137.63,-137.63l621.1 0c71.52,0 130.74,55.25 137.07,125.19 0.38,4.1 0.57,8.35 0.57,12.44l0 76.09 -0.57 0 -552.81 0c-44.13,0 -80.24,36.22 -80.24,80.24l0 77.14c0,44.02 36.11,80.24 80.24,80.24l553.38 0 161.46 0c17.6,0 34,-5.76 47.23,-15.46 20.52,-14.98 33.92,-39.19 33.92,-66.39z"/>
  </g>
  <g id="_1809895722560">
   <path class="fil1" d="M11103.32 11154.08c-70.55,0 -134.04,-9.41 -190.48,-28.22 -56.44,-18.82 -105.82,-43.51 -148.15,-74.08 -42.33,-30.57 -78,-65.45 -107,-104.65 -29,-39.19 -51.34,-79.95 -67.02,-122.28l235.16 -98.77c26.65,67.42 65.06,117.19 115.23,149.33 50.17,32.14 104.25,48.21 162.26,48.21 65.84,0 117.58,-13.33 155.21,-39.98 37.62,-26.65 56.43,-56.44 56.43,-89.36 0,-32.92 -14.11,-61.53 -42.32,-85.83 -28.22,-24.3 -81.53,-45.86 -159.91,-64.67l-164.62 -39.98c-36.05,-7.84 -72.5,-19.99 -109.35,-36.45 -36.84,-16.46 -70.94,-37.63 -102.29,-63.49 -31.36,-25.87 -56.83,-57.23 -76.43,-94.07 -19.6,-36.84 -29.39,-80.35 -29.39,-130.51 0,-56.44 12.15,-106.61 36.45,-150.51 24.3,-43.89 57.61,-80.73 99.94,-110.52 42.33,-29.79 91.32,-52.52 146.98,-68.2 55.65,-15.68 114.83,-23.51 177.54,-23.51 51.74,0 101.51,5.48 149.33,16.46 47.81,10.97 92.1,27.43 132.86,49.38 40.77,21.95 77.22,49.78 109.35,83.48 32.14,33.71 57.62,73.29 76.43,118.76l-230.46 96.41c-21.94,-50.16 -56.43,-86.61 -103.47,-109.34 -47.03,-22.74 -94.84,-34.1 -143.44,-34.1 -21.95,0 -44.29,2.74 -67.03,8.23 -22.73,5.48 -43.11,13.32 -61.14,23.51 -18.03,10.19 -32.92,23.13 -44.68,38.8 -11.76,15.68 -17.64,32.93 -17.64,51.74 0,31.36 13.72,56.05 41.16,74.08 27.43,18.03 69.37,34.09 125.81,48.2l176.37 44.68c119.15,29.79 206.55,74.86 262.2,135.22 55.66,60.36 83.49,131.3 83.49,212.82 0,50.17 -11.37,97.2 -34.1,141.1 -22.73,43.9 -55.26,83.09 -97.59,117.58 -42.33,34.49 -92.89,61.53 -151.68,81.13 -58.79,19.6 -123.46,29.4 -194.01,29.4z"/>
   <path class="fil1" d="M12903.21 10675.91c-23.52,98.77 -70.93,188.52 -141.87,269.26 -70.56,80.74 -168.93,137.57 -294.35,171.28 -83.48,22.34 -164.22,28.21 -242.21,17.63 -78.39,-10.59 -150.12,-35.67 -215.96,-74.86 -65.46,-39.19 -122.29,-90.93 -170.49,-154.81 -47.82,-64.28 -83.49,-139.53 -106.61,-225.76 -21.56,-80.35 -28.21,-159.91 -20.38,-239.08 8.23,-79.17 29.39,-152.07 64.28,-219.09 34.88,-66.63 82.69,-125.42 143.84,-175.98 61.14,-50.16 134.04,-87 218.7,-109.74 86.23,-22.73 166.96,-29 241.82,-18.42 74.86,10.58 142.67,35.66 203.42,74.46 60.74,38.81 113.26,91.33 157.95,157.17 44.29,65.85 77.99,141.89 101.11,228.11 1.97,7.84 3.93,14.5 5.49,20.38 0.4,8.23 1.57,15.29 3.14,21.16 0,6.28 1.17,12.55 2.74,18.81l-855.59 229.29c18.81,51.73 43.89,94.46 75.64,128.16 31.74,33.32 66.62,59.18 104.25,76.43 38.02,17.25 77.61,27.05 118.76,29 40.76,1.96 79.57,-1.96 116.01,-11.75 72.51,-19.22 127.78,-52.52 165.4,-99.95 37.24,-47.42 64.28,-101.12 80.74,-160.29l244.17 48.59zm-348.43 -366.07c-9.01,-21.94 -23.12,-45.46 -41.93,-70.16 -18.82,-25.08 -43.12,-46.24 -72.9,-63.49 -29.78,-16.85 -65.46,-29 -107.01,-35.66 -41.54,-6.67 -88.56,-3.14 -141.48,11.36 -72.9,19.2 -129.34,57.62 -170.1,114.84 -40.76,56.83 -60.36,124.25 -58.79,201.84l592.21 -158.73z"/>
   <path class="fil1" d="M13612.64 9926.54c87.79,0 168.53,15.28 242.21,45.85 73.69,30.57 137.18,73.29 190.48,128.16 53.31,54.88 94.85,119.94 124.64,195.19 29.79,75.25 44.68,156.77 44.68,244.57 0,87.79 -14.89,169.31 -44.68,244.56 -29.79,75.25 -71.33,140.32 -124.64,195.19 -53.3,54.87 -116.79,97.59 -190.48,128.16 -73.68,30.57 -154.42,45.86 -242.21,45.86 -87.8,0 -168.53,-15.29 -242.22,-45.86 -73.68,-30.57 -137.18,-73.29 -190.48,-128.16 -53.3,-54.87 -94.85,-119.94 -124.63,-195.19 -29.79,-75.25 -44.68,-156.77 -44.68,-244.56 0,-87.8 14.89,-169.32 44.68,-244.57 29.78,-75.25 71.33,-140.31 124.63,-195.19 53.3,-54.87 116.8,-97.59 190.48,-128.16 73.69,-30.57 154.42,-45.85 242.22,-45.85zm0 985.32c43.89,0 86.22,-8.62 126.98,-25.87 40.77,-17.24 77.22,-41.54 109.35,-72.9 32.14,-31.35 57.62,-70.15 76.43,-116.4 18.81,-46.25 28.22,-98.38 28.22,-156.38 0,-58.01 -9.41,-110.14 -28.22,-156.39 -18.81,-46.24 -44.29,-85.05 -76.43,-116.4 -32.13,-31.36 -68.58,-55.66 -109.35,-72.9 -40.76,-17.25 -83.09,-25.87 -126.98,-25.87 -43.9,0 -86.23,8.62 -126.99,25.87 -40.76,17.24 -77.21,41.54 -109.35,72.9 -32.14,31.35 -57.61,70.16 -76.43,116.4 -18.81,46.25 -28.22,98.38 -28.22,156.39 0,58 9.41,110.13 28.22,156.38 18.82,46.25 44.29,85.05 76.43,116.4 32.14,31.36 68.59,55.66 109.35,72.9 40.76,17.25 83.09,25.87 126.99,25.87z"/>
   <polygon class="fil1" points="14400.51,11116.45 14400.51,9432.7 14661.54,9432.7 14661.54,11116.45 "/>
   <polygon class="fil1" points="15282.4,11050.6 14802.68,9964.16 15094.28,9964.16 15411.74,10728.43 15423.5,10728.43 15731.56,9964.16 16020.81,9964.16 15298.87,11624.4 15021.38,11624.4 "/>
   <path class="fil1" d="M16161.98 9964.16l246.92 0 0 155.21 14.11 0c36.06,-56.44 86.22,-102.69 150.5,-138.75 64.28,-36.06 132.48,-54.08 204.59,-54.08 86.23,0 160.3,19.98 222.23,59.96 61.92,39.98 107,92.11 135.22,156.38 39.19,-61.14 91.71,-112.48 157.55,-154.03 65.85,-41.54 145.02,-62.31 237.52,-62.31 70.55,0 131.69,11.36 183.42,34.09 51.74,22.74 94.46,54.48 128.17,95.24 33.7,40.77 59.18,89.76 76.42,146.98 17.25,57.22 25.87,121.11 25.87,191.66l0 721.94 -261.03 0 0 -677.26c0,-100.34 -19.2,-170.5 -57.61,-210.47 -38.41,-39.98 -94.46,-59.97 -168.14,-59.97 -42.33,0 -80.35,9.41 -114.06,28.22 -33.7,18.81 -62.31,44.29 -85.83,76.43 -23.52,32.14 -41.54,69.37 -54.09,111.7 -12.54,42.33 -18.81,87.01 -18.81,134.04l0 597.31 -261.03 0 0 -677.26c0,-100.34 -19.99,-170.5 -59.96,-210.47 -39.98,-39.98 -97.6,-59.97 -172.85,-59.97 -40.76,0 -77.6,9.41 -110.52,28.22 -32.93,18.81 -61.15,44.29 -84.66,76.43 -23.52,32.14 -41.55,69.37 -54.09,111.7 -12.54,42.33 -18.81,87.01 -18.81,134.04l0 597.31 -261.03 0 0 -1152.29z"/>
   <path class="fil1" d="M18189.2 9964.16l246.92 0 0 148.15 14.11 0c31.36,-50.17 79.17,-93.67 143.45,-130.51 64.28,-36.84 141.1,-55.26 230.46,-55.26 73.68,0 143.84,15.28 210.47,45.85 66.63,30.57 125.02,73.29 175.19,128.16 50.17,54.88 90.15,119.54 119.93,194.01 29.79,74.47 44.69,156.38 44.69,245.75 0,89.36 -14.9,171.27 -44.69,245.74 -29.78,74.47 -69.76,139.14 -119.93,194.01 -50.17,54.87 -108.56,97.59 -175.19,128.16 -66.63,30.57 -136.79,45.86 -210.47,45.86 -89.36,0 -166.18,-18.43 -230.46,-55.27 -64.28,-36.84 -112.09,-80.34 -143.45,-130.51l-14.11 0 14.11 159.91 0 496.19 -261.03 0 0 -1660.24zm585.55 947.7c43.9,0 86.62,-8.62 128.17,-25.87 41.54,-17.24 77.6,-41.93 108.17,-74.07 30.57,-32.14 55.26,-70.94 74.08,-116.41 18.81,-45.46 28.22,-97.2 28.22,-155.2 0,-58.01 -9.41,-109.75 -28.22,-155.21 -18.82,-45.47 -43.51,-84.27 -74.08,-116.41 -30.57,-32.13 -66.63,-56.83 -108.17,-74.07 -41.55,-17.25 -84.27,-25.87 -128.17,-25.87 -45.46,0 -88.57,8.62 -129.33,25.87 -40.77,17.24 -76.43,41.54 -107,72.9 -30.57,31.35 -55.27,70.16 -74.08,116.4 -18.81,46.25 -28.22,98.38 -28.22,156.39 0,58 9.41,110.13 28.22,156.38 18.81,46.25 43.51,85.05 74.08,116.4 30.57,31.36 66.23,55.66 107,72.9 40.76,17.25 83.87,25.87 129.33,25.87z"/>
   <path class="fil1" d="M20362.16 10961.24l-14.11 0c-34.49,54.87 -83.48,100.73 -146.98,137.57 -63.49,36.84 -135.21,55.27 -215.17,55.27 -145.8,0 -254.76,-43.51 -326.87,-130.52 -72.12,-87.01 -108.18,-202.63 -108.18,-346.86l0 -712.54 261.03 0 0 677.26c0,100.34 23.13,170.5 69.37,210.47 46.25,39.98 107,59.97 182.25,59.97 43.9,0 83.49,-9.41 118.76,-28.22 35.28,-18.81 65.45,-44.29 90.54,-76.43 25.08,-32.14 43.89,-68.98 56.44,-110.52 12.54,-41.55 18.81,-85.05 18.81,-130.52l0 -602.01 261.03 0 0 1152.29 -246.92 0 0 -155.21z"/>
   <path class="fil1" d="M21298.19 11154.08c-70.55,0 -134.04,-9.41 -190.48,-28.22 -56.44,-18.82 -105.82,-43.51 -148.15,-74.08 -42.33,-30.57 -78,-65.45 -107,-104.65 -29,-39.19 -51.34,-79.95 -67.02,-122.28l235.16 -98.77c26.65,67.42 65.06,117.19 115.23,149.33 50.17,32.14 104.25,48.21 162.26,48.21 65.84,0 117.58,-13.33 155.21,-39.98 37.62,-26.65 56.43,-56.44 56.43,-89.36 0,-32.92 -14.11,-61.53 -42.32,-85.83 -28.22,-24.3 -81.53,-45.86 -159.91,-64.67l-164.62 -39.98c-36.05,-7.84 -72.5,-19.99 -109.35,-36.45 -36.84,-16.46 -70.94,-37.63 -102.29,-63.49 -31.36,-25.87 -56.83,-57.23 -76.43,-94.07 -19.6,-36.84 -29.39,-80.35 -29.39,-130.51 0,-56.44 12.15,-106.61 36.45,-150.51 24.3,-43.89 57.61,-80.73 99.94,-110.52 42.33,-29.79 91.32,-52.52 146.98,-68.2 55.65,-15.68 114.83,-23.51 177.54,-23.51 51.74,0 101.51,5.48 149.33,16.46 47.81,10.97 92.1,27.43 132.86,49.38 40.77,21.95 77.22,49.78 109.35,83.48 32.14,33.71 57.62,73.29 76.43,118.76l-230.46 96.41c-21.94,-50.16 -56.43,-86.61 -103.47,-109.34 -47.03,-22.74 -94.84,-34.1 -143.44,-34.1 -21.95,0 -44.29,2.74 -67.03,8.23 -22.73,5.48 -43.11,13.32 -61.14,23.51 -18.03,10.19 -32.92,23.13 -44.68,38.8 -11.76,15.68 -17.64,32.93 -17.64,51.74 0,31.36 13.72,56.05 41.16,74.08 27.43,18.03 69.37,34.09 125.81,48.2l176.37 44.68c119.15,29.79 206.55,74.86 262.2,135.22 55.66,60.36 83.49,131.3 83.49,212.82 0,50.17 -11.37,97.2 -34.1,141.1 -22.73,43.9 -55.26,83.09 -97.59,117.58 -42.33,34.49 -92.89,61.53 -151.68,81.13 -58.79,19.6 -123.46,29.4 -194.01,29.4z"/>
  </g>
 </g>
</svg>
