<?xml version="1.0" encoding="UTF-8"?>
<!DOCTYPE svg PUBLIC "-//W3C//DTD SVG 1.1//EN" "http://www.w3.org/Graphics/SVG/1.1/DTD/svg11.dtd">
<!-- Creator: CorelDRAW 2021 (64-Bit) -->
<svg xmlns="http://www.w3.org/2000/svg" xml:space="preserve" width="297mm" height="210mm" version="1.1" style="shape-rendering:geometricPrecision; text-rendering:geometricPrecision; image-rendering:optimizeQuality; fill-rule:evenodd; clip-rule:evenodd"
viewBox="0 0 29700 21000"
 xmlns:xlink="http://www.w3.org/1999/xlink"
 xmlns:xodm="http://www.corel.com/coreldraw/odm/2003">
 <defs>
  <style type="text/css">
   <![CDATA[
    .fil0 {fill:black}
    .fil1 {fill:black;fill-rule:nonzero}
   ]]>
  </style>
 </defs>
 <g id="Layer_x0020_1">
  <metadata id="CorelCorpID_0Corel-Layer"/>
  <g id="_1808387609264">
   <path class="fil0" d="M16508.46 8322.15l-1148.42 0c-46.9,0 -85.6,-36.51 -85.6,-81.18l0 -193.61c0,-44.67 38.5,-81.18 85.6,-81.18l1148.42 0c47.1,0 85.6,36.7 85.6,81.18l0 193.61c0,44.48 -38.89,81.18 -85.6,81.18zm308.99 -693.8l-1754.8 0c-74.08,0 -134.99,57.72 -134.99,127.98l0 779c0,70.26 60.71,127.98 134.99,127.98l1754.8 0c74.28,0 134.99,-57.54 134.99,-127.98l0 -779c0,-70.44 -61.11,-127.98 -134.99,-127.98z"/>
   <path class="fil0" d="M14558.72 8523.55l0 -699.71c0,-109.19 -89.43,-198.49 -198.46,-198.49l-160.19 0 -1470.11 0c-109.19,0 -198.5,89.46 -198.5,198.49l0 1232.4 0 58.31c0,109.18 89.31,198.49 198.5,198.49l1630.3 0 2174.83 0c32.07,0 58.3,26.19 58.3,58.23l0 354.31c0,32.03 -26.23,58.22 -58.3,58.22l-2370.6 0 -1518.43 0c-65.57,0 -119.37,52.78 -121.03,117.99l0 3.11 0 90.34c0,81.02 65.25,147.29 145.05,147.29l1494.41 0 2642.58 0c79.8,0 145.05,-66.27 145.05,-147.29l0 -896.04c0,-81.02 -65.25,-147.29 -145.05,-147.29l-2248.35 0 -560.82 0 -916.04 0 -8.56 -0.2c-107.72,-4.5 -194.43,-94 -194.43,-202.8l0 -567.32c0,-111.68 91.32,-203 202.99,-203l916.04 0c105.48,0 192.82,81.5 202.17,184.65 0.55,6.04 0.82,12.31 0.82,18.35l0 112.22 -0.82 0 -815.33 0c-65.09,0 -118.34,53.41 -118.34,118.34l0 113.77c0,64.93 53.25,118.34 118.34,118.34l816.15 0 238.15 0c25.95,0 50.13,-8.48 69.66,-22.8 30.25,-22.09 50.02,-57.79 50.02,-97.91z"/>
  </g>
  <g id="_1808387608928">
   <path class="fil1" d="M9545.73 12513.76c-73.19,0 -139.06,-9.75 -197.61,-29.27 -58.55,-19.52 -109.79,-45.14 -153.7,-76.85 -43.92,-31.72 -80.92,-67.91 -111.01,-108.57 -30.09,-40.66 -53.26,-82.95 -69.53,-126.86l243.97 -102.47c27.65,69.94 67.5,121.58 119.54,154.92 52.05,33.35 108.16,50.02 168.34,50.02 68.31,0 121.99,-13.83 161.02,-41.48 39.04,-27.65 58.55,-58.55 58.55,-92.71 0,-34.15 -14.63,-63.83 -43.91,-89.04 -29.28,-25.21 -84.58,-47.58 -165.9,-67.1l-170.78 -41.47c-37.4,-8.13 -75.22,-20.74 -113.44,-37.82 -38.22,-17.07 -73.6,-39.03 -106.13,-65.87 -32.53,-26.83 -58.96,-59.36 -79.29,-97.58 -20.33,-38.23 -30.49,-83.36 -30.49,-135.41 0,-58.55 12.6,-110.59 37.81,-156.14 25.21,-45.54 59.77,-83.76 103.69,-114.66 43.91,-30.9 94.74,-54.49 152.48,-70.75 57.74,-16.27 119.14,-24.4 184.19,-24.4 53.68,0 105.32,5.69 154.92,17.08 49.61,11.38 95.56,28.46 137.85,51.23 42.28,22.77 80.1,51.64 113.44,86.61 33.34,34.97 59.77,76.04 79.29,123.21l-239.09 100.02c-22.77,-52.04 -58.55,-89.86 -107.34,-113.44 -48.8,-23.59 -98.4,-35.38 -148.82,-35.38 -22.77,0 -45.95,2.85 -69.54,8.54 -23.58,5.69 -44.72,13.83 -63.43,24.4 -18.7,10.57 -34.15,23.99 -46.35,40.25 -12.2,16.27 -18.3,34.16 -18.3,53.68 0,32.52 14.23,58.14 42.7,76.85 28.46,18.7 71.97,35.37 130.52,50.01l182.97 46.35c123.62,30.91 214.29,77.67 272.03,140.28 57.74,62.62 86.61,136.22 86.61,220.8 0,52.04 -11.79,100.84 -35.38,146.38 -23.58,45.54 -57.33,86.2 -101.24,121.98 -43.92,35.78 -96.37,63.84 -157.36,84.17 -61,20.33 -128.09,30.49 -201.28,30.49z"/>
   <path class="fil1" d="M11412.98 12017.69c-24.4,102.47 -73.6,195.58 -147.19,279.34 -73.19,83.76 -175.26,142.72 -305.37,177.7 -86.61,23.17 -170.37,29.27 -251.29,18.29 -81.32,-10.98 -155.73,-37.01 -224.04,-77.66 -67.91,-40.66 -126.86,-94.34 -176.88,-160.61 -49.61,-66.69 -86.6,-144.76 -110.59,-234.21 -22.37,-83.36 -29.28,-165.91 -21.15,-248.04 8.54,-82.14 30.5,-157.77 66.68,-227.29 36.19,-69.13 85.8,-130.12 149.24,-182.58 63.43,-52.04 139.05,-90.26 226.88,-113.85 89.46,-23.58 173.22,-30.09 250.88,-19.1 77.67,10.97 148.01,36.99 211.04,77.25 63.02,40.25 117.5,94.74 163.86,163.05 45.95,68.31 80.92,147.2 104.91,236.65 2.03,8.14 4.06,15.05 5.69,21.14 0.41,8.54 1.62,15.86 3.26,21.96 -0.01,6.51 1.22,13.02 2.84,19.52l-887.63 237.87c19.51,53.67 45.53,97.99 78.47,132.96 32.93,34.56 69.12,61.4 108.16,79.29 39.44,17.89 80.5,28.06 123.2,30.08 42.29,2.04 82.54,-2.03 120.36,-12.19 75.23,-19.92 132.55,-54.49 171.59,-103.68 38.63,-49.21 66.68,-104.91 83.76,-166.31l253.32 50.42zm-361.48 -379.78c-9.35,-22.76 -23.98,-47.17 -43.51,-72.78 -19.51,-26.03 -44.72,-47.98 -75.62,-65.87 -30.9,-17.49 -67.91,-30.09 -111.01,-37 -43.1,-6.92 -91.9,-3.26 -146.78,11.78 -75.63,19.93 -134.19,59.78 -176.48,119.15 -42.28,58.95 -62.61,128.89 -60.99,209.4l614.39 -164.68z"/>
   <path class="fil1" d="M12148.92 11240.25c91.08,0 174.84,15.86 251.29,47.58 76.44,31.71 142.31,76.03 197.61,132.96 55.3,56.92 98.4,124.42 129.3,202.49 30.91,78.07 46.36,162.65 46.36,253.73 0,91.08 -15.45,175.66 -46.36,253.73 -30.9,78.06 -74,145.56 -129.3,202.49 -55.3,56.92 -121.17,101.25 -197.61,132.96 -76.45,31.72 -160.21,47.57 -251.29,47.57 -91.08,0 -174.84,-15.85 -251.29,-47.57 -76.44,-31.71 -142.31,-76.04 -197.61,-132.96 -55.3,-56.93 -98.4,-124.43 -129.31,-202.49 -30.9,-78.07 -46.35,-162.65 -46.35,-253.73 0,-91.08 15.45,-175.66 46.35,-253.73 30.91,-78.07 74.01,-145.57 129.31,-202.49 55.3,-56.93 121.17,-101.25 197.61,-132.96 76.45,-31.72 160.21,-47.58 251.29,-47.58zm0 1022.23c45.54,0 89.45,-8.95 131.74,-26.84 42.29,-17.89 80.1,-43.1 113.45,-75.63 33.34,-32.53 59.77,-72.78 79.29,-120.76 19.51,-47.98 29.27,-102.06 29.27,-162.24 0,-60.18 -9.76,-114.26 -29.27,-162.24 -19.52,-47.98 -45.95,-88.24 -79.29,-120.76 -33.35,-32.53 -71.16,-57.74 -113.45,-75.63 -42.29,-17.9 -86.2,-26.84 -131.74,-26.84 -45.54,0 -89.46,8.94 -131.74,26.84 -42.29,17.89 -80.11,43.1 -113.45,75.63 -33.34,32.52 -59.77,72.78 -79.29,120.76 -19.52,47.98 -29.27,102.06 -29.27,162.24 0,60.18 9.75,114.26 29.27,162.24 19.52,47.98 45.95,88.23 79.29,120.76 33.34,32.53 71.16,57.74 113.45,75.63 42.28,17.89 86.2,26.84 131.74,26.84z"/>
   <polygon class="fil1" points="12966.24,12474.73 12966.24,10727.92 13237.05,10727.92 13237.05,12474.73 "/>
   <polygon class="fil1" points="13881.14,12406.42 13383.45,11279.29 13685.97,11279.29 14015.33,12072.18 14027.52,12072.18 14347.12,11279.29 14647.2,11279.29 13898.22,13001.7 13610.34,13001.7 "/>
   <path class="fil1" d="M14793.6 11279.29l256.17 0 0 161.02 14.64 0c37.4,-58.56 89.45,-106.54 156.14,-143.95 66.68,-37.4 137.43,-56.11 212.25,-56.11 89.45,0 166.3,20.74 230.55,62.21 64.24,41.48 111,95.56 140.28,162.24 40.66,-63.43 95.15,-116.7 163.46,-159.8 68.31,-43.1 150.45,-64.65 246.41,-64.65 73.19,0 136.62,11.79 190.29,35.38 53.67,23.58 97.99,56.52 132.96,98.8 34.97,42.29 61.4,93.12 79.29,152.48 17.89,59.37 26.84,125.65 26.84,198.84l0 748.98 -270.8 0 0 -702.63c0,-104.09 -19.93,-176.87 -59.78,-218.35 -39.85,-41.47 -97.99,-62.21 -174.43,-62.21 -43.92,0 -83.36,9.76 -118.33,29.28 -34.97,19.51 -64.65,45.94 -89.05,79.28 -24.39,33.35 -43.1,71.98 -56.11,115.89 -13.01,43.91 -19.52,90.27 -19.52,139.06l0 619.68 -270.8 0 0 -702.63c0,-104.09 -20.74,-176.87 -62.21,-218.35 -41.48,-41.47 -101.25,-62.21 -179.32,-62.21 -42.29,0 -80.51,9.76 -114.66,29.28 -34.16,19.51 -63.44,45.94 -87.83,79.28 -24.4,33.35 -43.1,71.98 -56.12,115.89 -13.01,43.91 -19.51,90.27 -19.51,139.06l0 619.68 -270.81 0 0 -1195.44z"/>
   <path class="fil1" d="M16896.65 11279.29l256.17 0 0 153.7 14.64 0c32.53,-52.05 82.13,-97.18 148.82,-135.41 66.68,-38.22 146.38,-57.33 239.09,-57.33 76.44,0 149.22,15.86 218.35,47.58 69.12,31.71 129.71,76.03 181.75,132.96 52.05,56.92 93.53,124.02 124.43,201.27 30.9,77.26 46.35,162.24 46.35,254.95 0,92.71 -15.45,177.69 -46.35,254.94 -30.9,77.26 -72.38,144.35 -124.43,201.28 -52.04,56.92 -112.63,101.25 -181.75,132.96 -69.13,31.72 -141.91,47.57 -218.35,47.57 -92.71,0 -172.41,-19.11 -239.09,-57.33 -66.69,-38.22 -116.29,-83.35 -148.82,-135.4l-14.64 0 14.64 165.9 0 514.77 -270.81 0 0 -1722.41zm607.48 983.19c45.54,0 89.87,-8.95 132.97,-26.84 43.1,-17.89 80.51,-43.51 112.22,-76.85 31.72,-33.34 57.33,-73.6 76.85,-120.76 19.52,-47.17 29.28,-100.84 29.28,-161.02 0,-60.18 -9.76,-113.85 -29.28,-161.02 -19.52,-47.17 -45.13,-87.42 -76.85,-120.76 -31.71,-33.35 -69.12,-58.96 -112.22,-76.85 -43.1,-17.9 -87.43,-26.84 -132.97,-26.84 -47.16,0 -91.89,8.94 -134.18,26.84 -42.29,17.89 -79.29,43.1 -111,75.63 -31.72,32.52 -57.34,72.78 -76.85,120.76 -19.52,47.98 -29.28,102.06 -29.28,162.24 0,60.18 9.76,114.26 29.28,162.24 19.51,47.98 45.13,88.23 76.85,120.76 31.71,32.53 68.71,57.74 111,75.63 42.29,17.89 87.02,26.84 134.18,26.84z"/>
   <path class="fil1" d="M19150.93 12313.71l-14.64 0c-35.78,56.93 -86.6,104.5 -152.48,142.72 -65.87,38.22 -140.28,57.33 -223.23,57.33 -151.26,0 -264.29,-45.13 -339.11,-135.4 -74.82,-90.27 -112.23,-210.22 -112.23,-359.85l0 -739.22 270.81 0 0 702.62c0,104.1 23.99,176.88 71.97,218.36 47.98,41.47 111,62.21 189.07,62.21 45.54,0 86.61,-9.76 123.21,-29.28 36.59,-19.52 67.9,-45.95 93.93,-79.29 26.02,-33.34 45.54,-71.56 58.55,-114.66 13.01,-43.1 19.51,-88.24 19.51,-135.41l0 -624.55 270.81 0 0 1195.44 -256.17 0 0 -161.02z"/>
   <path class="fil1" d="M20121.94 12513.76c-73.19,0 -139.06,-9.75 -197.61,-29.27 -58.55,-19.52 -109.79,-45.14 -153.7,-76.85 -43.92,-31.72 -80.92,-67.91 -111.01,-108.57 -30.09,-40.66 -53.26,-82.95 -69.53,-126.86l243.97 -102.47c27.65,69.94 67.5,121.58 119.54,154.92 52.05,33.35 108.16,50.02 168.34,50.02 68.31,0 121.99,-13.83 161.02,-41.48 39.04,-27.65 58.55,-58.55 58.55,-92.71 0,-34.15 -14.63,-63.83 -43.91,-89.04 -29.28,-25.21 -84.58,-47.58 -165.9,-67.1l-170.78 -41.47c-37.4,-8.13 -75.22,-20.74 -113.44,-37.82 -38.22,-17.07 -73.6,-39.03 -106.13,-65.87 -32.53,-26.83 -58.96,-59.36 -79.29,-97.58 -20.33,-38.23 -30.49,-83.36 -30.49,-135.41 0,-58.55 12.6,-110.59 37.81,-156.14 25.21,-45.54 59.77,-83.76 103.69,-114.66 43.91,-30.9 94.74,-54.49 152.48,-70.75 57.74,-16.27 119.14,-24.4 184.19,-24.4 53.68,0 105.32,5.69 154.92,17.08 49.61,11.38 95.56,28.46 137.85,51.23 42.28,22.77 80.1,51.64 113.44,86.61 33.34,34.97 59.77,76.04 79.29,123.21l-239.09 100.02c-22.77,-52.04 -58.55,-89.86 -107.34,-113.44 -48.8,-23.59 -98.4,-35.38 -148.82,-35.38 -22.77,0 -45.95,2.85 -69.54,8.54 -23.58,5.69 -44.72,13.83 -63.43,24.4 -18.7,10.57 -34.15,23.99 -46.35,40.25 -12.2,16.27 -18.3,34.16 -18.3,53.68 0,32.52 14.23,58.14 42.7,76.85 28.46,18.7 71.97,35.37 130.52,50.01l182.97 46.35c123.62,30.91 214.29,77.67 272.03,140.28 57.74,62.62 86.61,136.22 86.61,220.8 0,52.04 -11.79,100.84 -35.38,146.38 -23.58,45.54 -57.33,86.2 -101.24,121.98 -43.92,35.78 -96.37,63.84 -157.36,84.17 -61,20.33 -128.09,30.49 -201.28,30.49z"/>
  </g>
 </g>
</svg>
